<svg width="34" height="28" viewBox="0 0 34 28" fill="none" xmlns="http://www.w3.org/2000/svg">
<path d="M33.9352 3.29098C32.6626 3.85039 31.3148 4.21983 29.9349 4.38748C31.3895 3.51442 32.4785 2.14384 33.0002 0.529541C31.6243 1.32748 30.1268 1.89424 28.5674 2.20723C27.5188 1.08678 26.1297 0.343735 24.6156 0.0933825C23.1015 -0.15697 21.5472 0.0993639 20.1937 0.822615C18.8402 1.54587 17.7632 2.6956 17.1298 4.09343C16.4965 5.49126 16.3422 7.05905 16.6908 8.55354C10.897 8.2826 5.76088 5.49885 2.32581 1.29348C1.70051 2.35692 1.37347 3.56927 1.37912 4.80291C1.37827 5.94974 1.66063 7.07902 2.20112 8.0905C2.74161 9.10197 3.5235 9.96432 4.47737 10.601C3.37198 10.5676 2.29065 10.2699 1.32387 9.73292V9.81685C1.32354 11.4266 1.87979 12.9869 2.89834 14.2334C3.9169 15.4798 5.33512 16.3358 6.91263 16.6562C6.31507 16.8158 5.69939 16.8976 5.08088 16.8995C4.63356 16.8995 4.20644 16.8559 3.78038 16.7773C4.22931 18.1625 5.09894 19.3733 6.26823 20.2411C7.43751 21.1089 8.84827 21.5906 10.3041 21.6191C7.83744 23.5509 4.79377 24.5988 1.66069 24.5952C1.10575 24.5974 0.551184 24.5661 0 24.5017C3.1961 26.5496 6.91301 27.6368 10.7089 27.6339C23.5301 27.6339 30.5363 17.0142 30.5363 7.81723C30.5363 7.52398 30.5362 7.22541 30.5139 6.92579C31.8844 5.94356 33.0655 4.72105 34 3.31754L33.9352 3.29098Z" fill="#7D9A63"/>
</svg>
