<svg width="57" height="57" viewBox="0 0 57 57" fill="none" xmlns="http://www.w3.org/2000/svg">
<path fill-rule="evenodd" clip-rule="evenodd" d="M28.5 2.375C14.0719 2.375 2.375 14.0719 2.375 28.5C2.375 42.9281 14.0719 54.625 28.5 54.625C42.9281 54.625 54.625 42.9281 54.625 28.5C54.625 14.0719 42.9281 2.375 28.5 2.375ZM39.824 24.0825C40.0325 23.8442 40.1913 23.5665 40.2909 23.2659C40.3905 22.9653 40.429 22.6478 40.4041 22.3321C40.3793 22.0164 40.2915 21.7088 40.146 21.4276C40.0005 21.1463 39.8002 20.8969 39.5569 20.6942C39.3136 20.4915 39.0323 20.3394 38.7294 20.247C38.4265 20.1546 38.1081 20.1238 37.7931 20.1562C37.4781 20.1887 37.1727 20.2838 36.895 20.436C36.6173 20.5882 36.3728 20.7944 36.176 21.0425L25.9635 33.2951L20.6791 28.0084C20.2312 27.5758 19.6313 27.3364 19.0085 27.3418C18.3858 27.3472 17.7902 27.597 17.3498 28.0373C16.9095 28.4777 16.6597 29.0733 16.6543 29.6961C16.6489 30.3188 16.8883 30.9187 17.3209 31.3666L24.4459 38.4916C24.6792 38.7248 24.9586 38.9069 25.2662 39.0261C25.5739 39.1454 25.9029 39.1993 26.2325 39.1843C26.5621 39.1693 26.8849 39.0859 27.1805 38.9392C27.476 38.7925 27.7377 38.5859 27.949 38.3325L39.824 24.0825Z" fill="#684D45"/>
</svg>
