<svg width="56" height="56" viewBox="0 0 56 56" fill="none" xmlns="http://www.w3.org/2000/svg">
<path d="M53.76 50.68H2.24C1.001 50.68 0 51.681 0 52.92V55.44C0 55.748 0.252 56 0.56 56H55.44C55.748 56 56 55.748 56 55.44V52.92C56 51.681 54.999 50.68 53.76 50.68ZM10.199 44.8C10.339 44.8 10.479 44.786 10.619 44.765L22.393 42.7C22.533 42.672 22.666 42.609 22.764 42.504L52.437 12.831C52.5019 12.7662 52.5534 12.6893 52.5885 12.6046C52.6236 12.52 52.6417 12.4292 52.6417 12.3375C52.6417 12.2458 52.6236 12.155 52.5885 12.0704C52.5534 11.9857 52.5019 11.9088 52.437 11.844L40.803 0.203C40.67 0.0700001 40.495 0 40.306 0C40.117 0 39.942 0.0700001 39.809 0.203L10.136 29.876C10.031 29.981 9.968 30.107 9.94 30.247L7.875 42.021C7.8069 42.396 7.83124 42.7819 7.94589 43.1454C8.06054 43.5089 8.26206 43.8389 8.533 44.107C8.995 44.555 9.576 44.8 10.199 44.8V44.8Z" fill="#684D45"/>
</svg>
