<svg width="32" height="27" viewBox="0 0 32 27" fill="none" xmlns="http://www.w3.org/2000/svg">
<g clip-path="url(#clip0_12_50)">
<path d="M2.98286 0H28.6183C29.4094 0 30.1681 0.309354 30.7275 0.860008C31.2869 1.41066 31.6011 2.15751 31.6011 2.93625C31.6011 3.71499 31.2869 4.46184 30.7275 5.01249C30.1681 5.56315 29.4094 5.8725 28.6183 5.8725H2.98286C2.19175 5.8725 1.43305 5.56315 0.873659 5.01249C0.314265 4.46184 8.88961e-08 3.71499 8.88961e-08 2.93625C8.88961e-08 2.15751 0.314265 1.41066 0.873659 0.860008C1.43305 0.309354 2.19175 0 2.98286 0V0ZM2.98286 10.5638H28.6183C29.01 10.5638 29.3979 10.6397 29.7598 10.7873C30.1217 10.9348 30.4505 11.1511 30.7275 11.4238C31.0045 11.6964 31.2242 12.0201 31.3741 12.3763C31.524 12.7326 31.6011 13.1144 31.6011 13.5C31.6011 13.8856 31.524 14.2674 31.3741 14.6237C31.2242 14.9799 31.0045 15.3036 30.7275 15.5762C30.4505 15.8489 30.1217 16.0652 29.7598 16.2127C29.3979 16.3603 29.01 16.4362 28.6183 16.4362H2.98286C2.59114 16.4362 2.20326 16.3603 1.84137 16.2127C1.47947 16.0652 1.15064 15.8489 0.873659 15.5762C0.596675 15.3036 0.376959 14.9799 0.227057 14.6237C0.0771539 14.2674 2.60371e-08 13.8856 2.60371e-08 13.5C2.60371e-08 13.1144 0.0771539 12.7326 0.227057 12.3763C0.376959 12.0201 0.596675 11.6964 0.873659 11.4238C1.15064 11.1511 1.47947 10.9348 1.84137 10.7873C2.20326 10.6397 2.59114 10.5638 2.98286 10.5638V10.5638ZM2.98286 21.1286H28.6183C29.01 21.1286 29.3979 21.2046 29.7598 21.3521C30.1217 21.4997 30.4505 21.716 30.7275 21.9886C31.0045 22.2613 31.2242 22.585 31.3741 22.9412C31.524 23.2975 31.6011 23.6793 31.6011 24.0649C31.6011 24.4505 31.524 24.8323 31.3741 25.1885C31.2242 25.5448 31.0045 25.8685 30.7275 26.1411C30.4505 26.4138 30.1217 26.6301 29.7598 26.7776C29.3979 26.9252 29.01 27.0011 28.6183 27.0011H2.98286C2.59114 27.0011 2.20326 26.9252 1.84137 26.7776C1.47947 26.6301 1.15064 26.4138 0.873659 26.1411C0.596675 25.8685 0.376959 25.5448 0.227056 25.1885C0.0771539 24.8323 0 24.4505 0 24.0649C0 23.6793 0.0771539 23.2975 0.227056 22.9412C0.376959 22.585 0.596675 22.2613 0.873659 21.9886C1.15064 21.716 1.47947 21.4997 1.84137 21.3521C2.20326 21.2046 2.59114 21.1286 2.98286 21.1286V21.1286Z" fill="#684D45"/>
</g>
<defs>
<clipPath id="clip0_12_50">
<rect width="32" height="27" fill="white"/>
</clipPath>
</defs>
</svg>
