<svg width="34" height="34" viewBox="0 0 34 34" fill="none" xmlns="http://www.w3.org/2000/svg">
<g clip-path="url(#clip0_10_191)">
<path d="M33.9331 6.47381C32.6606 7.03322 31.3127 7.40267 29.9328 7.57031C31.3874 6.69725 32.4764 5.32667 32.9981 3.71237C31.6222 4.51031 30.1248 5.07707 28.5654 5.39006C27.5167 4.26961 26.1276 3.52657 24.6135 3.27621C23.0995 3.02586 21.5451 3.28219 20.1916 4.00545C18.8381 4.7287 17.7611 5.87843 17.1278 7.27626C16.4944 8.67409 16.3401 10.2419 16.6887 11.7364C10.8949 11.4654 5.7588 8.68168 2.32374 4.47631C1.69843 5.53975 1.37139 6.7521 1.37705 7.98575C1.3762 9.13257 1.65855 10.2619 2.19904 11.2733C2.73953 12.2848 3.52143 13.1472 4.4753 13.7838C3.3699 13.7504 2.28858 13.4527 1.3218 12.9157V12.9997C1.32146 14.6094 1.87771 16.1697 2.89627 17.4162C3.91483 18.6627 5.33304 19.5186 6.91055 19.839C6.31299 19.9987 5.69731 20.0804 5.0788 20.0823C4.63149 20.0823 4.20436 20.0387 3.7783 19.9601C4.22724 21.3453 5.09687 22.5561 6.26615 23.4239C7.43544 24.2917 8.84619 24.7734 10.302 24.8019C7.83536 26.7337 4.7917 27.7817 1.65861 27.778C1.10367 27.7802 0.549109 27.749 -0.0020752 27.6845C3.19402 29.7324 6.91094 30.8196 10.7069 30.8167C23.528 30.8167 30.5342 20.1971 30.5342 11.0001C30.5342 10.7068 30.5342 10.4082 30.5119 10.1086C31.8824 9.12639 33.0635 7.90388 33.9979 6.50037L33.9331 6.47381Z" fill="#59423B"/>
</g>
<defs>
<clipPath id="clip0_10_191">
<rect width="34" height="34" fill="white"/>
</clipPath>
</defs>
</svg>
