<svg width="36" height="36" viewBox="0 0 36 36" fill="none" xmlns="http://www.w3.org/2000/svg">
<path fill-rule="evenodd" clip-rule="evenodd" d="M18 1.5C8.8875 1.5 1.5 8.8875 1.5 18C1.5 27.1125 8.8875 34.5 18 34.5C27.1125 34.5 34.5 27.1125 34.5 18C34.5 8.8875 27.1125 1.5 18 1.5ZM23.5605 14.5605C23.8337 14.2776 23.9849 13.8987 23.9815 13.5054C23.9781 13.1121 23.8203 12.7359 23.5422 12.4578C23.2641 12.1797 22.8879 12.0219 22.4946 12.0185C22.1013 12.0151 21.7224 12.1663 21.4395 12.4395L18 15.879L14.5605 12.4395C14.4221 12.2962 14.2566 12.182 14.0736 12.1033C13.8906 12.0247 13.6938 11.9834 13.4946 11.9816C13.2954 11.9799 13.0979 12.0178 12.9136 12.0933C12.7292 12.1687 12.5617 12.2801 12.4209 12.4209C12.2801 12.5617 12.1687 12.7292 12.0933 12.9136C12.0178 13.0979 11.9799 13.2954 11.9816 13.4946C11.9834 13.6938 12.0247 13.8906 12.1033 14.0736C12.182 14.2566 12.2962 14.4221 12.4395 14.5605L15.879 18L12.4395 21.4395C12.2962 21.5779 12.182 21.7434 12.1033 21.9264C12.0247 22.1094 11.9834 22.3062 11.9816 22.5054C11.9799 22.7046 12.0178 22.9021 12.0933 23.0864C12.1687 23.2708 12.2801 23.4383 12.4209 23.5791C12.5617 23.7199 12.7292 23.8313 12.9136 23.9067C13.0979 23.9822 13.2954 24.0201 13.4946 24.0184C13.6938 24.0166 13.8906 23.9753 14.0736 23.8967C14.2566 23.818 14.4221 23.7038 14.5605 23.5605L18 20.121L21.4395 23.5605C21.7224 23.8337 22.1013 23.9849 22.4946 23.9815C22.8879 23.9781 23.2641 23.8203 23.5422 23.5422C23.8203 23.2641 23.9781 22.8879 23.9815 22.4946C23.9849 22.1013 23.8337 21.7224 23.5605 21.4395L20.121 18L23.5605 14.5605Z" fill="#684D45"/>
</svg>
